<svg width="12" height="12" viewBox="0 0 12 12" fill="none" xmlns="http://www.w3.org/2000/svg">
<g clip-path="url(#clip0_51_616)">
<path d="M11.8285 8.58187L10.015 6.76837V8.23787C8.82982 8.15989 7.72211 7.62156 6.9285 6.73787C6.8285 6.85237 6.7285 6.96587 6.6245 7.08787C6.405 7.34187 6.1745 7.60487 5.937 7.86737C7.00297 8.99549 8.46464 9.66664 10.015 9.73986V11.1744L11.8285 9.36086C11.8797 9.30977 11.9204 9.24907 11.9482 9.18223C11.9759 9.11539 11.9902 9.04373 11.9902 8.97137C11.9902 8.899 11.9759 8.82734 11.9482 8.7605C11.9204 8.69367 11.8797 8.63296 11.8285 8.58187Z" fill="#52504B"/>
<path d="M10.006 3.7574V5.2074L11.827 3.3864C11.9307 3.28269 11.9889 3.14205 11.9889 2.9954C11.9889 2.84875 11.9307 2.7081 11.827 2.6044L10.006 0.782898V2.2554C7.743 2.3604 6.3795 3.5924 5.2445 4.8604C4.033 3.5199 2.56 2.2434 -0.010498 2.2434V3.7459C2.034 3.7459 3.1345 4.7429 4.2495 6.0004C3.1345 7.2579 2.034 8.2539 -0.010498 8.2539V9.7564C3.013 9.7564 4.52 7.9899 5.8665 6.4309C7.05 5.0629 8.0805 3.8739 10.006 3.7574Z" fill="#52504B"/>
</g>
<defs>
<clipPath id="clip0_51_616">
<rect width="12" height="12" fill="white"/>
</clipPath>
</defs>
</svg>
