<svg width="12" height="12" viewBox="0 0 12 12" fill="none" xmlns="http://www.w3.org/2000/svg">
<g clip-path="url(#clip0_51_617)">
<path d="M9.718 4.31997L12 2.03697L10.9405 0.976471L8.645 3.27197L7.77 2.41697C7.54878 2.20132 7.25447 2.07689 6.94564 2.06846C6.63682 2.06003 6.33615 2.16821 6.1035 2.37147C5.24722 3.14858 4.25105 3.75585 3.168 4.16097L0 5.08997V5.64997C0.0191308 7.35082 0.712195 8.97462 1.92712 10.1651C3.14205 11.3555 4.77961 12.0154 6.4805 12H7.157L7.3505 11.865C8.35876 11.2178 9.19504 10.3358 9.78765 9.29454C10.3803 8.25328 10.7115 7.08383 10.753 5.88647C10.7578 5.71598 10.7272 5.54634 10.6632 5.38826C10.5992 5.23017 10.5031 5.08707 10.381 4.96797L9.718 4.31997ZM6.68 10.5H6.48C6.00895 10.5002 5.54015 10.4351 5.087 10.3065C5.73431 9.89111 6.29221 9.35072 6.728 8.71697L6.975 8.35347L5.735 7.50997L5.4885 7.87247C5.07875 8.47058 4.52417 8.95516 3.8765 9.28097L3.45 9.49497C3.14577 9.26641 2.86894 9.00351 2.625 8.71147C3.3015 8.42988 3.91854 8.02271 4.4435 7.51147L3.3935 6.44047C2.95166 6.86923 2.42315 7.19844 1.8435 7.40597C1.68766 7.02023 1.58358 6.61554 1.534 6.20247L3.59 5.59997C4.35799 5.3459 5.08544 4.98268 5.75 4.52147L8.913 7.59997C8.47495 8.76793 7.69722 9.77797 6.68 10.5V10.5Z" fill="#52504B"/>
</g>
<defs>
<clipPath id="clip0_51_617">
<rect width="12" height="12" fill="white"/>
</clipPath>
</defs>
</svg>
