<svg width="16" height="16" viewBox="0 0 16 16" fill="none" xmlns="http://www.w3.org/2000/svg">
<g clip-path="url(#clip0_73_76)">
<path d="M9.63128 2.884L0.765949 11.5333C0.399782 11.8992 0.150364 12.3654 0.0492585 12.873C-0.0518467 13.3806 -9.43938e-05 13.9068 0.197966 14.385C0.396027 14.8632 0.731493 15.2719 1.16191 15.5594C1.59233 15.8469 2.09836 16.0002 2.61595 16C2.95764 16.0014 3.29624 15.9352 3.61225 15.8052C3.92827 15.6753 4.21545 15.4841 4.45728 15.2427L13.3333 6.58333L9.63128 2.884ZM10.4853 6.566L8.74662 8.26267L7.87528 7.39133L9.61395 5.69467L10.4853 6.566ZM3.05128 13.8193C2.93421 13.9317 2.77822 13.9945 2.61595 13.9945C2.45368 13.9945 2.29769 13.9317 2.18062 13.8193C2.06661 13.7054 2.00179 13.5514 2.00004 13.3902C1.9983 13.2291 2.05977 13.0737 2.17128 12.9573L6.44395 8.788L7.31528 9.65933L3.05128 13.8193ZM14.222 10.4447L16 11.3333L14.222 12.222L13.3333 14L12.4446 12.222L10.6666 11.3333L12.4446 10.4447L13.3333 8.66667L14.222 10.4447ZM3.77795 3.55533L1.99995 2.66667L3.77795 1.778L4.66662 0L5.55528 1.778L7.33328 2.66667L5.55528 3.55533L4.66662 5.33333L3.77795 3.55533ZM12.8886 3.11133L11.3333 2.33333L12.8886 1.55533L13.6666 0L14.4446 1.55533L16 2.33333L14.4446 3.11133L13.6666 4.66667L12.8886 3.11133Z" fill="#52504B"/>
</g>
<defs>
<clipPath id="clip0_73_76">
<rect width="16" height="16" fill="white"/>
</clipPath>
</defs>
</svg>
