<svg width="16" height="16" viewBox="0 0 16 16" fill="none" xmlns="http://www.w3.org/2000/svg">
<g clip-path="url(#clip0_51_615)">
<path d="M15.1833 1.16466C14.9278 0.951173 14.6284 0.796498 14.3064 0.71159C13.9844 0.626683 13.6476 0.613619 13.32 0.673326L9.38667 1.38866C8.87212 1.48157 8.39229 1.71193 7.998 2.05533C7.6038 1.71179 7.12393 1.48141 6.60933 1.38866L2.68 0.673326C2.35245 0.61377 2.01581 0.626886 1.69388 0.711746C1.37195 0.796605 1.07259 0.951138 0.816956 1.16442C0.561321 1.3777 0.355652 1.64453 0.214485 1.94605C0.0733171 2.24756 9.72656e-05 2.5764 0 2.90933L0 13.9253L8 15.38L16 13.9253V2.90933C16.0004 2.57639 15.9274 2.24746 15.7862 1.94592C15.6451 1.64438 15.4392 1.37764 15.1833 1.16466V1.16466ZM7 13.1647L2 12.256V2.90933C2.00035 2.86957 2.00937 2.83037 2.02643 2.79446C2.04349 2.75855 2.06818 2.72679 2.09877 2.70141C2.12936 2.67602 2.16513 2.65761 2.20357 2.64746C2.24201 2.63731 2.2822 2.63568 2.32133 2.64266L6.25467 3.35799C6.46355 3.39616 6.65247 3.50628 6.78862 3.66922C6.92478 3.83217 6.99956 4.03765 7 4.24999V13.1647ZM14 12.256L9 13.1653V4.24999C9.00003 4.03712 9.07479 3.83101 9.21125 3.66762C9.34771 3.50423 9.5372 3.39394 9.74667 3.35599L13.68 2.64133C13.7192 2.6341 13.7594 2.63557 13.798 2.64562C13.8365 2.65567 13.8724 2.67407 13.903 2.6995C13.9337 2.72494 13.9584 2.75679 13.9754 2.79282C13.9923 2.82885 14.0012 2.86816 14.0013 2.90799L14 12.256Z" fill="#52504B"/>
</g>
<defs>
<clipPath id="clip0_51_615">
<rect width="16" height="16" fill="white"/>
</clipPath>
</defs>
</svg>
