<svg width="16" height="16" viewBox="0 0 16 16" fill="none" xmlns="http://www.w3.org/2000/svg">
<g clip-path="url(#clip0_73_80)">
<path d="M7.99997 0.0138397C6.22091 0.0159572 4.51532 0.723673 3.25739 1.98173C1.99946 3.23978 1.29191 4.94544 1.28997 6.72451C1.28997 10.2405 6.73397 14.9438 7.35664 15.4692L8.00131 16.0138L8.64597 15.4692C9.26731 14.9438 14.7126 10.2405 14.7126 6.72451C14.7107 4.94498 14.0028 3.23892 12.7443 1.98079C11.4858 0.722656 9.77951 0.0152514 7.99997 0.0138397V0.0138397ZM7.99997 13.3758C5.95664 11.5145 3.28864 8.49051 3.28864 6.72451C3.28864 5.47498 3.78501 4.27664 4.66856 3.39309C5.5521 2.50954 6.75045 2.01317 7.99997 2.01317C9.2495 2.01317 10.4478 2.50954 11.3314 3.39309C12.2149 4.27664 12.7113 5.47498 12.7113 6.72451C12.7113 8.48717 10.0426 11.5125 7.99997 13.3758Z" fill="#52504B"/>
</g>
<defs>
<clipPath id="clip0_73_80">
<rect width="16" height="16" fill="white"/>
</clipPath>
</defs>
</svg>
