<svg width="12" height="12" viewBox="0 0 12 12" fill="none" xmlns="http://www.w3.org/2000/svg">
<g clip-path="url(#clip0_57_630)">
<path d="M6.99997 12.0001C5.4092 11.9984 3.88407 11.3657 2.75923 10.2409C1.63438 9.11604 1.00169 7.59092 0.999967 6.00014C0.923467 1.52214 6.01547 -1.49236 9.89547 0.754645L10.672 1.18564L9.90047 1.62564C6.55047 3.46964 6.79547 8.56064 10.3005 10.0786L11.111 10.4441L10.3775 10.9471C9.38415 11.6319 8.20642 11.9991 6.99997 12.0001V12.0001ZM6.99997 1.00014C5.67433 1.0016 4.40341 1.52885 3.46604 2.46622C2.52867 3.40359 2.00142 4.67451 1.99997 6.00014C1.92247 9.55865 5.88147 12.1001 9.07747 10.5411C8.32924 10.039 7.70897 9.36864 7.26632 8.58374C6.82367 7.79884 6.57095 6.92121 6.52838 6.0211C6.4858 5.121 6.65457 4.22343 7.02115 3.40025C7.38774 2.57708 7.94197 1.85117 8.63947 1.28065C8.11308 1.09387 7.55851 0.998985 6.99997 1.00014V1.00014Z" fill="#52504B"/>
</g>
<defs>
<clipPath id="clip0_57_630">
<rect width="12" height="12" fill="white"/>
</clipPath>
</defs>
</svg>
