<svg width="16" height="16" viewBox="0 0 16 16" fill="none" xmlns="http://www.w3.org/2000/svg">
<g clip-path="url(#clip0_51_613)">
<path d="M14.364 0H1.636C1.20227 0.000529264 0.786453 0.173063 0.479758 0.479758C0.173063 0.786453 0.000529264 1.20227 0 1.636L0 13.3333H4.62533L7.32467 15.5913C7.51538 15.7466 7.75411 15.8307 8 15.8293C8.25086 15.8293 8.49396 15.7423 8.688 15.5833L11.3747 13.3333H16V1.636C15.9995 1.20227 15.8269 0.786453 15.5202 0.479758C15.2135 0.173063 14.7977 0.000529264 14.364 0V0ZM14 11.3333H10.648L8 13.548L5.352 11.3333H2V2H14V11.3333Z" fill="#52504B"/>
<path d="M8 4H4V6H8V4Z" fill="#52504B"/>
<path d="M12 7.33344H4V9.33343H12V7.33344Z" fill="#52504B"/>
</g>
<defs>
<clipPath id="clip0_51_613">
<rect width="16" height="16" fill="white"/>
</clipPath>
</defs>
</svg>
