<svg width="16" height="16" viewBox="0 0 16 16" fill="none" xmlns="http://www.w3.org/2000/svg">
<g clip-path="url(#clip0_51_614)">
<path d="M7.13333 1.75023C6.94588 1.35166 6.64887 1.01467 6.27701 0.778624C5.90514 0.542581 5.47379 0.417236 5.03333 0.417236C4.59288 0.417236 4.16152 0.542581 3.78966 0.778624C3.4178 1.01467 3.12079 1.35166 2.93333 1.75023H0V3.75023H2.93C3.11746 4.1488 3.41447 4.4858 3.78633 4.72184C4.15819 4.95788 4.58955 5.08323 5.03 5.08323C5.47045 5.08323 5.90181 4.95788 6.27367 4.72184C6.64553 4.4858 6.94254 4.1488 7.13 3.75023H16V1.75023H7.13333Z" fill="#52504B"/>
<path d="M10.97 5.66624C10.5296 5.66703 10.0984 5.79272 9.7266 6.02873C9.35477 6.26475 9.0575 6.60139 8.86933 6.99958H0V8.99958H8.86667C9.05412 9.39815 9.35113 9.73514 9.723 9.97119C10.0949 10.2072 10.5262 10.3326 10.9667 10.3326C11.4071 10.3326 11.8385 10.2072 12.2103 9.97119C12.5822 9.73514 12.8792 9.39815 13.0667 8.99958H16V6.99958H13.07C12.8819 6.60149 12.5847 6.26492 12.213 6.02891C11.8413 5.79291 11.4103 5.66715 10.97 5.66624V5.66624Z" fill="#52504B"/>
<path d="M5.03 10.9163C4.5897 10.9172 4.15869 11.0429 3.78698 11.2789C3.41528 11.5149 3.11812 11.8515 2.93 12.2496H0V14.2496H2.93C3.11746 14.6482 3.41447 14.9852 3.78633 15.2212C4.15819 15.4572 4.58955 15.5826 5.03 15.5826C5.47045 15.5826 5.90181 15.4572 6.27367 15.2212C6.64553 14.9852 6.94254 14.6482 7.13 14.2496H16V12.2496H7.13333C6.94497 11.851 6.64729 11.5141 6.27494 11.278C5.90259 11.042 5.47086 10.9165 5.03 10.9163V10.9163Z" fill="#52504B"/>
</g>
<defs>
<clipPath id="clip0_51_614">
<rect width="16" height="16" fill="white"/>
</clipPath>
</defs>
</svg>
