<svg width="12" height="12" viewBox="0 0 12 12" fill="none" xmlns="http://www.w3.org/2000/svg">
<g clip-path="url(#clip0_57_634)">
<path d="M12 6.5V5.5H9.464C9.42414 5.22195 9.3506 4.94979 9.245 4.6895L11.441 3.411L10.938 2.547L8.741 3.826C8.57302 3.61485 8.38144 3.42361 8.17 3.256L9.445 1.0635L8.581 0.5605L7.306 2.753C7.04709 2.64836 6.77645 2.57549 6.5 2.536V0H5.5V2.536C5.22572 2.57499 4.95712 2.64684 4.7 2.75L3.427 0.5605L2.563 1.0635L3.8355 3.25C3.62292 3.4183 3.43048 3.61057 3.262 3.823L1.07 2.547L0.567 3.411L2.7565 4.6855C2.64995 4.94696 2.5759 5.2205 2.536 5.5H0V6.5H2.536C2.57593 6.7782 2.64946 7.05052 2.755 7.311L0.5705 8.5825L1.0735 9.447L3.2595 8.174C3.42571 8.38338 3.61527 8.5731 3.8245 8.7395L2.55 10.9325L3.4145 11.4355L4.6885 9.2445C4.94906 9.35042 5.22158 9.42413 5.5 9.464V12H6.5V9.464C6.7811 9.42373 7.05617 9.349 7.319 9.2415L8.595 11.4355L9.459 10.9325L8.181 8.735C8.38918 8.56882 8.57788 8.37962 8.7435 8.171L10.935 9.447L11.435 8.5825L9.244 7.307C9.34966 7.04787 9.42353 6.7769 9.464 6.5H12ZM8.5 6C8.395 9.304 3.6045 9.303 3.5 6C3.605 2.696 8.3955 2.697 8.5 6Z" fill="#52504B"/>
</g>
<defs>
<clipPath id="clip0_57_634">
<rect width="12" height="12" fill="white"/>
</clipPath>
</defs>
</svg>
