<svg width="16" height="16" viewBox="0 0 16 16" fill="none" xmlns="http://www.w3.org/2000/svg">
<g clip-path="url(#clip0_76_158)">
<path d="M15.3334 2H12.0001V1.66667C12.0001 1.22464 11.8245 0.800716 11.5119 0.488155C11.1993 0.175595 10.7754 0 10.3334 0L5.66672 0C5.22469 0 4.80077 0.175595 4.48821 0.488155C4.17565 0.800716 4.00005 1.22464 4.00005 1.66667V2H0.666718V4H2.00005V14C2.00005 14.5304 2.21076 15.0391 2.58584 15.4142C2.96091 15.7893 3.46962 16 4.00005 16H12.0001C12.5305 16 13.0392 15.7893 13.4143 15.4142C13.7893 15.0391 14.0001 14.5304 14.0001 14V4H15.3334V2ZM12.0001 14H4.00005V4H12.0001V14Z" fill="#52504B"/>
<path d="M7.33327 6H5.33327V12H7.33327V6Z" fill="#52504B"/>
<path d="M10.6667 6H8.66673V12H10.6667V6Z" fill="#52504B"/>
</g>
<defs>
<clipPath id="clip0_76_158">
<rect width="16" height="16" fill="white"/>
</clipPath>
</defs>
</svg>
