<svg width="100" height="100" viewBox="0 0 100 100" fill="none" xmlns="http://www.w3.org/2000/svg">
<g id="icon">
<rect id="Rectangle" width="100" height="100" fill="#CF451A"/>
<path id="Shape" fill-rule="evenodd" clip-rule="evenodd" d="M75.9478 16.6667L68.5623 27.7826V83.3333H78.4096H83.3333V27.7826L75.9478 16.6667ZM36.8614 18.77L37.6019 18.5384L38.3424 18.77C38.3424 18.77 45.3528 21.0279 56.6138 23.6525L58.5179 24.0964V58.1775C58.5179 64.9127 53.2865 70.683 48.4782 75.083C43.6795 79.4927 38.9001 82.4936 38.9001 82.4936L37.5923 83.3331L36.2844 82.4936C36.2844 82.4936 31.505 79.4927 26.7063 75.083C21.8981 70.683 16.6667 64.9127 16.6667 58.1775V24.0192L18.5707 23.5753C29.8413 20.9411 36.8614 18.77 36.8614 18.77ZM37.5824 23.6717C38.0728 23.8357 44.5544 25.7463 53.5939 27.956V45.8167L23.5326 27.377C31.3509 25.4375 37.14 23.8164 37.5824 23.6717ZM78.5408 68.3757V29.4869H73.4202V68.3757H78.5408ZM78.409 73.5046V78.6328H73.4853V73.5046H78.409ZM53.5945 51.6067L21.5907 31.9801V36.7469L53.5945 56.3638V51.6067ZM21.5907 42.5359L52.7483 61.6317C52.2482 62.78 51.5654 63.9669 50.7288 65.1634L21.5907 47.2929V42.5359ZM47.5553 69.0137L21.5907 53.0827V58.1775C21.5907 62.0276 25.5912 67.3829 30.0148 71.4453C33.5189 74.6481 36.1467 76.3662 37.3386 77.1455C37.4322 77.2067 37.517 77.2621 37.5926 77.312C37.6682 77.2621 37.753 77.2067 37.8466 77.1455C39.0386 76.3662 41.6664 74.6481 45.1704 71.4453C45.9397 70.7362 46.6674 69.9604 47.3921 69.1876C47.4465 69.1296 47.5009 69.0716 47.5553 69.0137Z" fill="white"/>
</g>
</svg>
